<?xml version="1.0" encoding="utf-8"?>
<!-- Generator: Adobe Illustrator 18.0.0, SVG Export Plug-In . SVG Version: 6.00 Build 0)  -->
<!DOCTYPE svg PUBLIC "-//W3C//DTD SVG 1.1//EN" "http://www.w3.org/Graphics/SVG/1.1/DTD/svg11.dtd">
<svg version="1.1" id="Layer_1" xmlns="http://www.w3.org/2000/svg" xmlns:xlink="http://www.w3.org/1999/xlink" x="0px" y="0px"
	 viewBox="0 0 72 72" enable-background="new 0 0 72 72" xml:space="preserve">
<g>
	<path fill="#1D6CA4" d="M71.8,36c0,19.7-16,35.8-35.8,35.8S0.2,55.7,0.2,36S16.3,0.2,36,0.2C55.7,0.2,71.8,16.3,71.8,36z"/>
	
		<path fill="none" stroke="#FFFFFF" stroke-width="6.2225" stroke-linecap="round" stroke-linejoin="round" stroke-miterlimit="10" d="
		M36,37.3c0,0,11.8-10,25.2-16.6"/>
	
		<path fill="none" stroke="#FFFFFF" stroke-width="6.2225" stroke-linecap="round" stroke-linejoin="round" stroke-miterlimit="10" d="
		M36,37.3c0,0-11.8-10-25.2-16.6"/>
	
		<path fill="none" stroke="#FFFFFF" stroke-width="6.2225" stroke-linecap="round" stroke-linejoin="round" stroke-miterlimit="10" d="
		M36,22.8c0,0-8.3-7-18-11.7"/>
	
		<path fill="none" stroke="#FFFFFF" stroke-width="6.2225" stroke-linecap="round" stroke-linejoin="round" stroke-miterlimit="10" d="
		M36,22.8c0,0,8.3-7,18-11.7"/>
	
		<path fill="none" stroke="#FFFFFF" stroke-width="6.2225" stroke-linecap="round" stroke-linejoin="round" stroke-miterlimit="10" d="
		M36,52.4c0,0,13.4-13,30.1-19.9"/>
	
		<path fill="none" stroke="#FFFFFF" stroke-width="6.2225" stroke-linecap="round" stroke-linejoin="round" stroke-miterlimit="10" d="
		M36,52.4c0,0-13.4-13-30.1-19.9"/>
	
		<path fill="none" stroke="#FFFFFF" stroke-width="6.2225" stroke-linecap="round" stroke-linejoin="round" stroke-miterlimit="10" d="
		M66.9,36c0,17.1-13.8,31-30.9,31S5.1,53.1,5.1,36C5.1,18.9,18.9,5.1,36,5.1C53.1,5.1,66.9,18.9,66.9,36z"/>
	<path fill="#FFFFFF" d="M37.8,46.2V5.9h-3.6v40.3c-0.1,7.8-0.4,15.3-0.9,20c0.2,0,0.5,0,0.9,0c0.5,0,1.1,0,1.8,0c0,0,0.1,0,0.2,0
		c0.7,0,1.3,0,1.8,0c0.4,0,0.6,0,0.9,0C38.2,61.5,38,53.9,37.8,46.2z"/>
</g>
</svg>
