<?xml version="1.0" encoding="utf-8"?>
<!-- Generator: Adobe Illustrator 18.0.0, SVG Export Plug-In . SVG Version: 6.00 Build 0)  -->
<!DOCTYPE svg PUBLIC "-//W3C//DTD SVG 1.1//EN" "http://www.w3.org/Graphics/SVG/1.1/DTD/svg11.dtd">
<svg version="1.1" id="Layer_1" xmlns="http://www.w3.org/2000/svg" xmlns:xlink="http://www.w3.org/1999/xlink" x="0px" y="0px"
	 viewBox="834 486 180 180" enable-background="new 834 486 180 180" xml:space="preserve">
<g>
	<path fill="#1D6CA4" d="M1014,576c0,49.7-40.3,90-90,90c-49.7,0-90-40.3-90-90c0-49.7,40.3-90,90-90C973.7,486,1014,526.3,1014,576
		z"/>
	
		<path fill="none" stroke="#FFFFFF" stroke-width="4.7711" stroke-linecap="round" stroke-linejoin="round" stroke-miterlimit="10" d="
		M924,579.2c0,0,29.7-25.2,63.3-41.7"/>
	
		<path fill="none" stroke="#FFFFFF" stroke-width="4.7711" stroke-linecap="round" stroke-linejoin="round" stroke-miterlimit="10" d="
		M924,579.2c0,0-29.7-25.2-63.3-41.7"/>
	
		<path fill="none" stroke="#FFFFFF" stroke-width="4.7711" stroke-linecap="round" stroke-linejoin="round" stroke-miterlimit="10" d="
		M924,542.7c0,0-20.9-17.5-45.3-29.5"/>
	
		<path fill="none" stroke="#FFFFFF" stroke-width="4.7711" stroke-linecap="round" stroke-linejoin="round" stroke-miterlimit="10" d="
		M924,542.7c0,0,20.9-17.5,45.3-29.5"/>
	
		<path fill="none" stroke="#FFFFFF" stroke-width="4.7711" stroke-linecap="round" stroke-linejoin="round" stroke-miterlimit="10" d="
		M923.9,617.3c0,0,33.7-32.8,75.7-50"/>
	
		<path fill="none" stroke="#FFFFFF" stroke-width="4.7711" stroke-linecap="round" stroke-linejoin="round" stroke-miterlimit="10" d="
		M924.1,617.3c0,0-33.7-32.8-75.7-50"/>
	
		<path fill="none" stroke="#FFFFFF" stroke-width="4.7711" stroke-linecap="round" stroke-linejoin="round" stroke-miterlimit="10" d="
		M1001.8,576c0,43-34.8,77.9-77.8,77.9c-43,0-77.8-34.8-77.8-77.9c0-43,34.8-77.8,77.8-77.8C967,498.2,1001.8,533,1001.8,576z"/>
	<path fill="#FFFFFF" d="M928.5,601.6V500.2h-9.1v101.4c-0.3,19.6-0.9,38.6-2.2,50.4c0.6,0,1.3,0,2.2,0c1.3,0,2.8,0,4.4,0
		c0.1,0,0.3,0,0.4,0c1.7,0,3.1,0,4.4,0c0.9,0,1.6,0,2.2,0C929.5,640.1,928.9,621.1,928.5,601.6z"/>
</g>
</svg>
