<?xml version="1.0" encoding="utf-8"?>
<!-- Generator: Adobe Illustrator 18.0.0, SVG Export Plug-In . SVG Version: 6.00 Build 0)  -->
<!DOCTYPE svg PUBLIC "-//W3C//DTD SVG 1.1//EN" "http://www.w3.org/Graphics/SVG/1.1/DTD/svg11.dtd">
<svg version="1.1" id="Layer_1" xmlns="http://www.w3.org/2000/svg" xmlns:xlink="http://www.w3.org/1999/xlink" x="0px" y="0px"
	 viewBox="905 525.5 110 29" enable-background="new 905 525.5 110 29" xml:space="preserve">
<g>
	<g>
		<path fill="#FFFFFF" d="M963.5,535.5h-6.8c-0.1-0.7-0.5-1.1-0.9-1.4c-0.5-0.3-1.1-0.5-1.9-0.5c-0.8,0-1.5,0.1-1.8,0.5
			c-0.3,0.2-0.5,0.6-0.5,1c0,0.3,0.1,0.6,0.3,0.8c0.3,0.3,1.1,0.6,2.4,0.9l2.7,0.7c2.6,0.6,4.3,1.5,5.3,2.6c1,1.1,1.6,2.5,1.6,4
			c0,1.2-0.2,2.3-0.8,3.3s-1.1,1.7-1.9,2.3s-1.8,1-3.1,1.4c-1.2,0.3-2.5,0.5-3.9,0.5c-1.5,0-3-0.2-4.2-0.6c-1.4-0.3-2.4-0.9-3.3-1.7
			c-0.9-0.7-1.5-1.6-1.9-2.5c-0.3-0.7-0.6-1.5-0.7-2.5h6.8c0.1,0.7,0.5,1.2,1,1.6c0.6,0.3,1.4,0.6,2.4,0.6c0.9,0,1.6-0.1,2-0.5
			c0.3-0.2,0.5-0.6,0.5-1c0-0.5-0.1-0.8-0.5-1c-0.3-0.2-1-0.6-2.4-0.9l-2.5-0.6c-1.2-0.3-2.5-0.7-3.6-1.2s-2-1.2-2.6-2.2
			c-0.6-0.9-0.9-1.9-0.9-3.2s0.2-2.3,0.8-3.3c0.6-0.9,1.2-1.7,2-2.3c0.9-0.6,1.8-1,3-1.2c1-0.2,2.2-0.3,3.3-0.3
			c1.4,0,2.6,0.1,3.7,0.5c1.1,0.2,2,0.7,2.7,1c0.7,0.5,1.2,0.9,1.6,1.5c0.5,0.6,0.8,1.1,1,1.7C963.1,534,963.3,534.7,963.5,535.5z"
			/>
		<path fill="#FFFFFF" d="M965.3,550.9v-21.7h7.2v21.7H965.3z"/>
		<path fill="#FFFFFF" d="M992.5,535.5h-6.8c-0.1-0.7-0.5-1.1-0.9-1.4c-0.5-0.3-1.1-0.5-1.9-0.5c-0.8,0-1.5,0.1-1.8,0.5
			c-0.3,0.2-0.5,0.6-0.5,1c0,0.3,0.1,0.6,0.3,0.8c0.3,0.3,1.1,0.6,2.4,0.9l2.7,0.7c2.6,0.6,4.3,1.5,5.3,2.6c1,1.1,1.6,2.5,1.6,4
			c0,1.2-0.2,2.3-0.8,3.3c-0.6,1-1.1,1.7-1.9,2.3c-0.8,0.6-1.8,1-3.1,1.4c-1.2,0.3-2.5,0.5-3.9,0.5c-1.5,0-3-0.2-4.2-0.6
			c-1.4-0.3-2.4-0.9-3.3-1.7c-0.9-0.7-1.5-1.6-1.9-2.5c-0.3-0.7-0.6-1.5-0.7-2.5h6.8c0.1,0.7,0.5,1.2,1,1.6c0.6,0.3,1.4,0.6,2.4,0.6
			c0.9,0,1.6-0.1,2-0.5c0.3-0.2,0.5-0.6,0.5-1c0-0.5-0.1-0.8-0.5-1c-0.3-0.2-1-0.6-2.4-0.9l-2.5-0.6c-1.2-0.3-2.5-0.7-3.6-1.2
			s-2-1.2-2.6-2.2c-0.6-0.9-0.9-1.9-0.9-3.2s0.2-2.3,0.8-3.3c0.6-0.9,1.2-1.7,2-2.3c0.9-0.6,1.8-1,3-1.2c1-0.2,2.2-0.3,3.3-0.3
			c1.4,0,2.6,0.1,3.7,0.5c1.1,0.2,2,0.7,2.7,1c0.7,0.5,1.2,0.9,1.6,1.5c0.5,0.6,0.8,1.1,1,1.7C992.3,534,992.4,534.7,992.5,535.5z"
			/>
		<path fill="#FFFFFF" d="M992.3,550.9l7.7-21.7h7.3l7.7,21.7h-7l-0.8-2.8h-7l-0.8,2.8H992.3z M1003.6,535.7l-2.3,7.8h4.5
			L1003.6,535.7z"/>
		<path fill="#FFFFFF" d="M936.1,550.9v-21.7h7.2v21.7H936.1z"/>
	</g>
	<g>
		<circle fill="#1D6CA4" cx="919.1" cy="540" r="14.1"/>
		
			<path fill="none" stroke="#FFFFFF" stroke-width="0.7486" stroke-linecap="round" stroke-linejoin="round" stroke-miterlimit="10" d="
			M919.1,540.6c0,0,4.7-4,10-6.6"/>
		
			<path fill="none" stroke="#FFFFFF" stroke-width="0.7486" stroke-linecap="round" stroke-linejoin="round" stroke-miterlimit="10" d="
			M919.1,540.6c0,0-4.7-4-10-6.6"/>
		
			<path fill="none" stroke="#FFFFFF" stroke-width="0.7486" stroke-linecap="round" stroke-linejoin="round" stroke-miterlimit="10" d="
			M919.1,534.8c0,0-3.3-2.7-7.2-4.7"/>
		
			<path fill="none" stroke="#FFFFFF" stroke-width="0.7486" stroke-linecap="round" stroke-linejoin="round" stroke-miterlimit="10" d="
			M919.1,534.8c0,0,3.3-2.7,7.2-4.7"/>
		
			<path fill="none" stroke="#FFFFFF" stroke-width="0.7486" stroke-linecap="round" stroke-linejoin="round" stroke-miterlimit="10" d="
			M919.1,546.6c0,0,5.3-5.1,11.9-7.8"/>
		
			<path fill="none" stroke="#FFFFFF" stroke-width="0.7486" stroke-linecap="round" stroke-linejoin="round" stroke-miterlimit="10" d="
			M919.1,546.6c0,0-5.3-5.1-11.9-7.8"/>
		
			<circle fill="none" stroke="#FFFFFF" stroke-width="0.7486" stroke-linecap="round" stroke-linejoin="round" stroke-miterlimit="10" cx="919.1" cy="540" r="12.3"/>
		<path fill="#FFFFFF" d="M919.8,544.1v-15.9h-1.5v15.9c0,3.1-0.1,6-0.3,7.9c0.1,0,0.2,0,0.3,0c0.2,0,0.5,0,0.7,0c0,0,0,0,0.1,0
			c0.2,0,0.5,0,0.7,0c0.1,0,0.2,0,0.3,0C919.9,550.1,919.9,547.2,919.8,544.1z"/>
	</g>
</g>
</svg>
