<?xml version="1.0" encoding="utf-8"?>
<!-- Generator: Adobe Illustrator 18.0.0, SVG Export Plug-In . SVG Version: 6.00 Build 0)  -->
<!DOCTYPE svg PUBLIC "-//W3C//DTD SVG 1.1//EN" "http://www.w3.org/Graphics/SVG/1.1/DTD/svg11.dtd">
<svg version="1.1" id="Layer_1" xmlns="http://www.w3.org/2000/svg" xmlns:xlink="http://www.w3.org/1999/xlink" x="0px" y="0px"
	 viewBox="0 0 72 72" enable-background="new 0 0 72 72" xml:space="preserve">
<g>
	<g>
		<path fill="#1D6CA4" d="M38.2,33.1h-4.3c-0.1-0.4-0.3-0.7-0.6-0.9C33,32,32.6,31.9,32,31.9c-0.5,0-0.9,0.1-1.2,0.3
			c-0.2,0.1-0.3,0.4-0.3,0.7c0,0.2,0.1,0.4,0.2,0.5c0.2,0.2,0.7,0.4,1.5,0.6l1.7,0.4c1.7,0.4,2.8,0.9,3.4,1.7c0.7,0.7,1,1.6,1,2.5
			c0,0.8-0.1,1.4-0.5,2.1c-0.4,0.7-0.7,1.1-1.2,1.4s-1.2,0.7-2,0.9c-0.8,0.2-1.6,0.3-2.5,0.3c-0.9,0-1.9-0.1-2.7-0.4
			c-0.9-0.2-1.5-0.6-2.1-1.1c-0.6-0.4-0.9-1-1.2-1.6c-0.2-0.4-0.4-0.9-0.4-1.6h4.3c0.1,0.4,0.3,0.8,0.7,1c0.4,0.2,0.9,0.4,1.5,0.4
			c0.6,0,1-0.1,1.3-0.3c0.2-0.1,0.3-0.4,0.3-0.7c0-0.3-0.1-0.5-0.3-0.7c-0.2-0.1-0.7-0.4-1.5-0.6l-1.6-0.4c-0.8-0.2-1.6-0.4-2.3-0.8
			c-0.7-0.4-1.3-0.8-1.7-1.4c-0.4-0.6-0.6-1.2-0.6-2c0-0.8,0.1-1.4,0.5-2.1c0.4-0.6,0.8-1.1,1.3-1.4c0.6-0.4,1.2-0.7,1.9-0.8
			c0.7-0.1,1.4-0.2,2.1-0.2c0.9,0,1.7,0.1,2.4,0.3c0.7,0.1,1.3,0.4,1.7,0.7c0.4,0.3,0.8,0.6,1,0.9c0.3,0.4,0.5,0.7,0.7,1.1
			C38,32.2,38.1,32.6,38.2,33.1z"/>
		<path fill="#1D6CA4" d="M39.4,43V29.1h4.6V43H39.4z"/>
		<path d="M56.8,33.1h-4.3c-0.1-0.4-0.3-0.7-0.6-0.9c-0.3-0.2-0.7-0.3-1.2-0.3s-0.9,0.1-1.2,0.3c-0.2,0.1-0.3,0.4-0.3,0.7
			c0,0.2,0.1,0.4,0.2,0.5c0.2,0.2,0.7,0.4,1.5,0.6l1.7,0.4c1.7,0.4,2.8,0.9,3.4,1.7c0.7,0.7,1,1.6,1,2.5c0,0.8-0.1,1.4-0.5,2.1
			c-0.4,0.7-0.7,1.1-1.2,1.4s-1.2,0.7-2,0.9c-0.8,0.2-1.6,0.3-2.5,0.3c-0.9,0-1.9-0.1-2.7-0.4c-0.9-0.2-1.5-0.6-2.1-1.1
			c-0.6-0.4-0.9-1-1.2-1.6c-0.2-0.4-0.4-0.9-0.4-1.6h4.3c0.1,0.4,0.3,0.8,0.7,1c0.4,0.2,0.9,0.4,1.5,0.4c0.6,0,1-0.1,1.3-0.3
			c0.2-0.1,0.3-0.4,0.3-0.7c0-0.3-0.1-0.5-0.3-0.7c-0.2-0.1-0.7-0.4-1.5-0.6l-1.6-0.4c-0.8-0.2-1.6-0.4-2.3-0.8
			c-0.7-0.4-1.3-0.8-1.7-1.4c-0.4-0.6-0.6-1.2-0.6-2c0-0.8,0.1-1.4,0.5-2.1c0.4-0.6,0.8-1.1,1.3-1.4c0.6-0.4,1.2-0.7,1.9-0.8
			c0.7-0.1,1.4-0.2,2.1-0.2c0.9,0,1.7,0.1,2.4,0.3c0.7,0.1,1.3,0.4,1.7,0.7c0.4,0.3,0.8,0.6,1,0.9c0.3,0.4,0.5,0.7,0.7,1.1
			C56.6,32.2,56.7,32.6,56.8,33.1z"/>
		<path d="M56.6,43l4.9-13.8h4.6L71.1,43h-4.5l-0.5-1.8h-4.5L61.1,43H56.6z M63.9,33.2l-1.4,5h2.9L63.9,33.2z"/>
		<path fill="#1D6CA4" d="M20.7,43V29.1h4.6V43H20.7z"/>
	</g>
	<g>
		<circle fill="#1D6CA4" cx="9.9" cy="36" r="9"/>
		
			<path fill="none" stroke="#FFFFFF" stroke-width="0.8459" stroke-linecap="round" stroke-linejoin="round" stroke-miterlimit="10" d="
			M9.9,36.4c0,0,3-2.5,6.4-4.2"/>
		
			<path fill="none" stroke="#FFFFFF" stroke-width="0.8459" stroke-linecap="round" stroke-linejoin="round" stroke-miterlimit="10" d="
			M9.9,36.4c0,0-3-2.5-6.4-4.2"/>
		
			<path fill="none" stroke="#FFFFFF" stroke-width="0.8459" stroke-linecap="round" stroke-linejoin="round" stroke-miterlimit="10" d="
			M9.9,32.7c0,0-2.1-1.7-4.6-3"/>
		
			<path fill="none" stroke="#FFFFFF" stroke-width="0.8459" stroke-linecap="round" stroke-linejoin="round" stroke-miterlimit="10" d="
			M9.9,32.7c0,0,2.1-1.7,4.6-3"/>
		
			<path fill="none" stroke="#FFFFFF" stroke-width="0.8459" stroke-linecap="round" stroke-linejoin="round" stroke-miterlimit="10" d="
			M9.9,40.2c0,0,3.4-3.3,7.6-5"/>
		
			<path fill="none" stroke="#FFFFFF" stroke-width="0.8459" stroke-linecap="round" stroke-linejoin="round" stroke-miterlimit="10" d="
			M9.9,40.2c0,0-3.4-3.3-7.6-5"/>
		
			<circle fill="none" stroke="#FFFFFF" stroke-width="0.8459" stroke-linecap="round" stroke-linejoin="round" stroke-miterlimit="10" cx="9.9" cy="36" r="7.8"/>
		<path fill="#FFFFFF" d="M10.3,38.6V28.5H9.4v10.1c0,2-0.1,3.8-0.2,5.1c0.1,0,0.1,0,0.2,0c0.1,0,0.3,0,0.4,0c0,0,0,0,0.1,0
			c0.1,0,0.3,0,0.4,0c0.1,0,0.1,0,0.2,0C10.4,42.5,10.4,40.6,10.3,38.6z"/>
	</g>
</g>
</svg>
